<svg width="24" height="24" viewBox="0 0 24 24" fill="none" xmlns="http://www.w3.org/2000/svg">
<g id="user-add">
<g id="vuesax/linear/user-add">
<g id="user-add_2">
<g id="Group 313">
<path id="Vector" d="M17.9981 7.16C17.9381 7.15 17.8681 7.15 17.8081 7.16C16.4281 7.11 15.3281 5.98 15.3281 4.58C15.3281 3.15 16.4781 2 17.9081 2C19.3381 2 20.4881 3.16 20.4881 4.58C20.4781 5.98 19.3781 7.11 17.9981 7.16Z" stroke="black" stroke-width="1.5" stroke-linecap="round" stroke-linejoin="round"/>
<path id="Vector_2" d="M20 14C21.5 13.5 22.3175 11.2402 20.9075 10.3002C19.8375 9.59016 18.3075 9.35016 16.9375 9.59016" stroke="black" stroke-width="1.5" stroke-linecap="round" stroke-linejoin="round"/>
<path id="Vector_3" d="M5.96656 7.16C6.02656 7.15 6.09656 7.15 6.15656 7.16C7.53656 7.11 8.63656 5.98 8.63656 4.58C8.63656 3.15 7.48656 2 6.05656 2C4.62656 2 3.47656 3.16 3.47656 4.58C3.48656 5.98 4.58656 7.11 5.96656 7.16Z" stroke="black" stroke-width="1.5" stroke-linecap="round" stroke-linejoin="round"/>
<path id="Vector_4" d="M6.9975 14.4402C5.6275 14.6702 4.1175 14.4302 3.0575 13.7202C1.6475 12.7802 1.6475 11.2402 3.0575 10.3002C4.1275 9.59016 5.6575 9.35016 7.0275 9.59016" stroke="black" stroke-width="1.5" stroke-linecap="round" stroke-linejoin="round"/>
<path id="Vector_5" d="M11.9981 14.6307C11.9381 14.6207 11.8681 14.6207 11.8081 14.6307C10.4281 14.5807 9.32812 13.4507 9.32812 12.0507C9.32812 10.6207 10.4781 9.4707 11.9081 9.4707C13.3381 9.4707 14.4881 10.6307 14.4881 12.0507C14.4781 13.4507 13.3781 14.5907 11.9981 14.6307Z" stroke="black" stroke-width="1.5" stroke-linecap="round" stroke-linejoin="round"/>
<path id="Vector_6" d="M14.5008 20.4996C12.9008 21.5696 10.6896 22.2708 9.08956 21.2008C7.67956 20.2608 8.00009 18.4996 9.08956 17.7808C10.6896 16.7208 12 16.9985 14 17.4987" stroke="black" stroke-width="1.5" stroke-linecap="round" stroke-linejoin="round"/>
</g>
<path id="Vector_7" d="M22 18C22 18.32 21.96 18.63 21.88 18.93C21.79 19.33 21.63 19.72 21.42 20.06C20.73 21.22 19.46 22 18 22C16.97 22 16.04 21.61 15.34 20.97C15.04 20.71 14.78 20.4 14.58 20.06C14.21 19.46 14 18.75 14 18C14 16.92 14.43 15.93 15.13 15.21C15.86 14.46 16.88 14 18 14C19.18 14 20.25 14.51 20.97 15.33C21.61 16.04 22 16.98 22 18Z" stroke="black" stroke-width="1.5" stroke-miterlimit="10" stroke-linecap="round" stroke-linejoin="round"/>
<g id="Group">
<path id="Vector_8" d="M19.4897 17.9805H16.5098" stroke="black" stroke-width="1.5" stroke-miterlimit="10" stroke-linecap="round" stroke-linejoin="round"/>
<path id="Vector_9" d="M18 16.5195V19.5095" stroke="black" stroke-width="1.5" stroke-miterlimit="10" stroke-linecap="round" stroke-linejoin="round"/>
</g>
</g>
</g>
</g>
</svg>
