<svg width="24" height="24" viewBox="0 0 24 24" fill="none" xmlns="http://www.w3.org/2000/svg">
<g id="iconamoon:lock-light">
<g id="Group">
<path id="Vector" d="M8 10V7C8 5.93913 8.42143 4.92172 9.17157 4.17157C9.92172 3.42143 10.9391 3 12 3C13.0609 3 14.0783 3.42143 14.8284 4.17157C15.5786 4.92172 16 5.93913 16 7V10" stroke="black" stroke-width="1.5" stroke-linecap="round"/>
<path id="Vector_2" d="M5 10H19V19C19 19.5304 18.7893 20.0391 18.4142 20.4142C18.0391 20.7893 17.5304 21 17 21H7C6.46957 21 5.96086 20.7893 5.58579 20.4142C5.21071 20.0391 5 19.5304 5 19V10Z" stroke="black" stroke-width="1.5" stroke-linejoin="round"/>
<path id="Vector_3" d="M12 16H12.01V16.01H12V16Z" stroke="black" stroke-width="2.25" stroke-linejoin="round"/>
</g>
</g>
</svg>
