<svg width="8" height="18" viewBox="0 0 8 18" fill="none" xmlns="http://www.w3.org/2000/svg">
<g id="more">
<g id="vuesax/linear/more">
<g id="more_2">
<path id="Vector" d="M2.5 14.25C2.5 15.075 3.175 15.75 4 15.75C4.825 15.75 5.5 15.075 5.5 14.25C5.5 13.425 4.825 12.75 4 12.75C3.175 12.75 2.5 13.425 2.5 14.25Z" fill="white"/>
<path id="Vector_2" d="M2.5 3.75C2.5 4.575 3.175 5.25 4 5.25C4.825 5.25 5.5 4.575 5.5 3.75C5.5 2.925 4.825 2.25 4 2.25C3.175 2.25 2.5 2.925 2.5 3.75Z" fill="white"/>
<path id="Vector_3" d="M2.5 9C2.5 9.825 3.175 10.5 4 10.5C4.825 10.5 5.5 9.825 5.5 9C5.5 8.175 4.825 7.5 4 7.5C3.175 7.5 2.5 8.175 2.5 9Z" fill="white"/>
</g>
</g>
</g>
</svg>
