<svg width="18" height="18" viewBox="0 0 18 18" fill="none" xmlns="http://www.w3.org/2000/svg">
<g id="solar:share-outline">
<path id="Vector" fill-rule="evenodd" clip-rule="evenodd" d="M12.3747 1.6875C12.0181 1.68738 11.6658 1.76552 11.3426 1.91639C11.0195 2.06727 10.7334 2.28721 10.5045 2.56071C10.2757 2.8342 10.1096 3.15458 10.0181 3.49925C9.92651 3.84392 9.9117 4.20448 9.97469 4.5555L6.42719 7.0395C6.40945 7.05177 6.39242 7.06504 6.37619 7.07925C6.01629 6.79791 5.58458 6.62337 5.13027 6.57553C4.67597 6.52769 4.21737 6.60847 3.80676 6.80867C3.39616 7.00887 3.05007 7.32043 2.80797 7.70781C2.56587 8.09519 2.4375 8.54281 2.4375 8.99963C2.4375 9.45644 2.56587 9.90406 2.80797 10.2914C3.05007 10.6788 3.39616 10.9904 3.80676 11.1906C4.21737 11.3908 4.67597 11.4716 5.13027 11.4237C5.58458 11.3759 6.01629 11.2013 6.37619 10.92C6.3924 10.9345 6.40943 10.948 6.42719 10.9605L9.97469 13.4445C9.86937 14.0316 9.98296 14.6369 10.2939 15.1458C10.6049 15.6548 11.0917 16.032 11.6622 16.2062C12.2326 16.3803 12.8471 16.3393 13.3893 16.0908C13.9316 15.8423 14.3638 15.4037 14.6044 14.8579C14.8449 14.3121 14.877 13.6971 14.6945 13.1292C14.5121 12.5614 14.1278 12.0802 13.6143 11.7766C13.1009 11.4731 12.494 11.3684 11.9085 11.4822C11.3231 11.5961 10.7997 11.9207 10.4374 12.3945L7.07819 10.0433C7.22819 9.72675 7.31219 9.3735 7.31219 9C7.31219 8.6265 7.22819 8.2725 7.07819 7.95675L10.4382 5.60475C10.6899 5.9342 11.0214 6.19401 11.4015 6.35961C11.7816 6.52521 12.1976 6.59113 12.6103 6.55113C13.023 6.51113 13.4186 6.36654 13.7598 6.13102C14.101 5.89551 14.3765 5.57686 14.5602 5.2052C14.7439 4.83354 14.8298 4.42116 14.8098 4.00706C14.7897 3.59295 14.6644 3.19081 14.4456 2.83865C14.2268 2.48649 13.9218 2.19596 13.5594 1.99453C13.197 1.7931 12.7893 1.68742 12.3747 1.6875ZM11.0622 4.125C11.0622 3.7769 11.2005 3.44306 11.4466 3.19692C11.6928 2.95078 12.0266 2.8125 12.3747 2.8125C12.7228 2.8125 13.0566 2.95078 13.3028 3.19692C13.5489 3.44306 13.6872 3.7769 13.6872 4.125C13.6872 4.4731 13.5489 4.80694 13.3028 5.05308C13.0566 5.29922 12.7228 5.4375 12.3747 5.4375C12.0266 5.4375 11.6928 5.29922 11.4466 5.05308C11.2005 4.80694 11.0622 4.4731 11.0622 4.125ZM4.87469 7.6875C4.52659 7.6875 4.19275 7.82578 3.94661 8.07192C3.70047 8.31806 3.56219 8.6519 3.56219 9C3.56219 9.3481 3.70047 9.68194 3.94661 9.92808C4.19275 10.1742 4.52659 10.3125 4.87469 10.3125C5.22278 10.3125 5.55662 10.1742 5.80277 9.92808C6.04891 9.68194 6.18719 9.3481 6.18719 9C6.18719 8.6519 6.04891 8.31806 5.80277 8.07192C5.55662 7.82578 5.22278 7.6875 4.87469 7.6875ZM12.3747 12.5625C12.0266 12.5625 11.6928 12.7008 11.4466 12.9469C11.2005 13.1931 11.0622 13.5269 11.0622 13.875C11.0622 14.2231 11.2005 14.5569 11.4466 14.8031C11.6928 15.0492 12.0266 15.1875 12.3747 15.1875C12.7228 15.1875 13.0566 15.0492 13.3028 14.8031C13.5489 14.5569 13.6872 14.2231 13.6872 13.875C13.6872 13.5269 13.5489 13.1931 13.3028 12.9469C13.0566 12.7008 12.7228 12.5625 12.3747 12.5625Z" fill="white"/>
</g>
</svg>
